<svg width="35" height="30" viewBox="0 0 35 30" fill="none" xmlns="http://www.w3.org/2000/svg">
<path d="M0.12 15.04C0.12 10.4267 0.946667 6.81333 2.6 4.2C4.28 1.58667 7.05333 0.279999 10.92 0.279999C14.7867 0.279999 17.5467 1.58667 19.2 4.2C20.88 6.81333 21.72 10.4267 21.72 15.04C21.72 19.68 20.88 23.32 19.2 25.96C17.5467 28.6 14.7867 29.92 10.92 29.92C7.05333 29.92 4.28 28.6 2.6 25.96C0.946667 23.32 0.12 19.68 0.12 15.04ZM16.2 15.04C16.2 13.0667 16.0667 11.4133 15.8 10.08C15.56 8.72 15.0533 7.61333 14.28 6.76C13.5333 5.90667 12.4133 5.48 10.92 5.48C9.42667 5.48 8.29333 5.90667 7.52 6.76C6.77333 7.61333 6.26667 8.72 6 10.08C5.76 11.4133 5.64 13.0667 5.64 15.04C5.64 17.0667 5.76 18.7733 6 20.16C6.24 21.52 6.74667 22.6267 7.52 23.48C8.29333 24.3067 9.42667 24.72 10.92 24.72C12.4133 24.72 13.5467 24.3067 14.32 23.48C15.0933 22.6267 15.6 21.52 15.84 20.16C16.08 18.7733 16.2 17.0667 16.2 15.04ZM25.2994 6V0.839999H34.9394V30H29.1794V6H25.2994Z" fill="#F6EDD2"/>
</svg>
