<svg width="46" height="30" viewBox="0 0 46 30" fill="none" xmlns="http://www.w3.org/2000/svg">
<path d="M0.12 15.04C0.12 10.4267 0.946667 6.81333 2.6 4.2C4.28 1.58667 7.05333 0.279999 10.92 0.279999C14.7867 0.279999 17.5467 1.58667 19.2 4.2C20.88 6.81333 21.72 10.4267 21.72 15.04C21.72 19.68 20.88 23.32 19.2 25.96C17.5467 28.6 14.7867 29.92 10.92 29.92C7.05333 29.92 4.28 28.6 2.6 25.96C0.946667 23.32 0.12 19.68 0.12 15.04ZM16.2 15.04C16.2 13.0667 16.0667 11.4133 15.8 10.08C15.56 8.72 15.0533 7.61333 14.28 6.76C13.5333 5.90667 12.4133 5.48 10.92 5.48C9.42667 5.48 8.29333 5.90667 7.52 6.76C6.77333 7.61333 6.26667 8.72 6 10.08C5.76 11.4133 5.64 13.0667 5.64 15.04C5.64 17.0667 5.76 18.7733 6 20.16C6.24 21.52 6.74667 22.6267 7.52 23.48C8.29333 24.3067 9.42667 24.72 10.92 24.72C12.4133 24.72 13.5467 24.3067 14.32 23.48C15.0933 22.6267 15.6 21.52 15.84 20.16C16.08 18.7733 16.2 17.0667 16.2 15.04ZM27.7394 23.68C30.2994 21.5467 32.3394 19.7733 33.8594 18.36C35.3794 16.92 36.646 15.4267 37.6594 13.88C38.6727 12.3333 39.1794 10.8133 39.1794 9.32C39.1794 7.96 38.8594 6.89333 38.2194 6.12C37.5794 5.34667 36.5927 4.96 35.2594 4.96C33.926 4.96 32.8994 5.41333 32.1794 6.32C31.4594 7.2 31.086 8.41333 31.0594 9.96H25.6194C25.726 6.76 26.6727 4.33333 28.4594 2.68C30.2727 1.02666 32.566 0.199997 35.3394 0.199997C38.3794 0.199997 40.7127 1.01333 42.3394 2.64C43.966 4.24 44.7794 6.36 44.7794 9C44.7794 11.08 44.2194 13.0667 43.0994 14.96C41.9794 16.8533 40.6994 18.5067 39.2594 19.92C37.8194 21.3067 35.9394 22.9867 33.6194 24.96H45.4194V29.6H25.6594V25.44L27.7394 23.68Z" fill="#FBE8D8"/>
</svg>
