<svg width="46" height="31" viewBox="0 0 46 31" fill="none" xmlns="http://www.w3.org/2000/svg">
<path d="M0.12 15.04C0.12 10.4267 0.946667 6.81333 2.6 4.2C4.28 1.58667 7.05333 0.279999 10.92 0.279999C14.7867 0.279999 17.5467 1.58667 19.2 4.2C20.88 6.81333 21.72 10.4267 21.72 15.04C21.72 19.68 20.88 23.32 19.2 25.96C17.5467 28.6 14.7867 29.92 10.92 29.92C7.05333 29.92 4.28 28.6 2.6 25.96C0.946667 23.32 0.12 19.68 0.12 15.04ZM16.2 15.04C16.2 13.0667 16.0667 11.4133 15.8 10.08C15.56 8.72 15.0533 7.61333 14.28 6.76C13.5333 5.90667 12.4133 5.48 10.92 5.48C9.42667 5.48 8.29333 5.90667 7.52 6.76C6.77333 7.61333 6.26667 8.72 6 10.08C5.76 11.4133 5.64 13.0667 5.64 15.04C5.64 17.0667 5.76 18.7733 6 20.16C6.24 21.52 6.74667 22.6267 7.52 23.48C8.29333 24.3067 9.42667 24.72 10.92 24.72C12.4133 24.72 13.5467 24.3067 14.32 23.48C15.0933 22.6267 15.6 21.52 15.84 20.16C16.08 18.7733 16.2 17.0667 16.2 15.04ZM26.0594 8.52C26.1927 5.85333 27.126 3.8 28.8594 2.36C30.6194 0.893331 32.926 0.159998 35.7794 0.159998C37.726 0.159998 39.3927 0.506665 40.7794 1.2C42.166 1.86666 43.206 2.78666 43.8994 3.96C44.6194 5.10667 44.9794 6.41333 44.9794 7.88C44.9794 9.56 44.5394 10.9867 43.6594 12.16C42.806 13.3067 41.7794 14.08 40.5794 14.48V14.64C42.126 15.12 43.326 15.9733 44.1794 17.2C45.0594 18.4267 45.4994 20 45.4994 21.92C45.4994 23.52 45.126 24.9467 44.3794 26.2C43.6594 27.4533 42.5794 28.44 41.1394 29.16C39.726 29.8533 38.0194 30.2 36.0194 30.2C33.006 30.2 30.5527 29.44 28.6594 27.92C26.766 26.4 25.766 24.16 25.6594 21.2H31.0994C31.1527 22.5067 31.5927 23.56 32.4194 24.36C33.2727 25.1333 34.4327 25.52 35.8994 25.52C37.2594 25.52 38.2994 25.1467 39.0194 24.4C39.766 23.6267 40.1394 22.64 40.1394 21.44C40.1394 19.84 39.6327 18.6933 38.6194 18C37.606 17.3067 36.0327 16.96 33.8994 16.96H32.7394V12.36H33.8994C37.686 12.36 39.5794 11.0933 39.5794 8.56C39.5794 7.41333 39.2327 6.52 38.5394 5.88C37.8727 5.24 36.8994 4.92 35.6194 4.92C34.366 4.92 33.3927 5.26667 32.6994 5.96C32.0327 6.62667 31.646 7.48 31.5394 8.52H26.0594Z" fill="#FBEBCE"/>
</svg>
