<svg width="48" height="30" viewBox="0 0 48 30" fill="none" xmlns="http://www.w3.org/2000/svg">
<path d="M0.12 15.04C0.12 10.4267 0.946667 6.81333 2.6 4.2C4.28 1.58667 7.05333 0.279999 10.92 0.279999C14.7867 0.279999 17.5467 1.58667 19.2 4.2C20.88 6.81333 21.72 10.4267 21.72 15.04C21.72 19.68 20.88 23.32 19.2 25.96C17.5467 28.6 14.7867 29.92 10.92 29.92C7.05333 29.92 4.28 28.6 2.6 25.96C0.946667 23.32 0.12 19.68 0.12 15.04ZM16.2 15.04C16.2 13.0667 16.0667 11.4133 15.8 10.08C15.56 8.72 15.0533 7.61333 14.28 6.76C13.5333 5.90667 12.4133 5.48 10.92 5.48C9.42667 5.48 8.29333 5.90667 7.52 6.76C6.77333 7.61333 6.26667 8.72 6 10.08C5.76 11.4133 5.64 13.0667 5.64 15.04C5.64 17.0667 5.76 18.7733 6 20.16C6.24 21.52 6.74667 22.6267 7.52 23.48C8.29333 24.3067 9.42667 24.72 10.92 24.72C12.4133 24.72 13.5467 24.3067 14.32 23.48C15.0933 22.6267 15.6 21.52 15.84 20.16C16.08 18.7733 16.2 17.0667 16.2 15.04ZM45.5794 5.68H32.6194V12.52C33.1794 11.8267 33.9794 11.2667 35.0194 10.84C36.0594 10.3867 37.166 10.16 38.3394 10.16C40.4727 10.16 42.2194 10.6267 43.5794 11.56C44.9394 12.4933 45.926 13.6933 46.5394 15.16C47.1527 16.6 47.4594 18.1467 47.4594 19.8C47.4594 22.8667 46.5794 25.3333 44.8194 27.2C43.086 29.0667 40.606 30 37.3794 30C34.3394 30 31.9127 29.24 30.0994 27.72C28.286 26.2 27.2594 24.2133 27.0194 21.76H32.4594C32.6994 22.8267 33.2327 23.68 34.0594 24.32C34.9127 24.96 35.9927 25.28 37.2994 25.28C38.8727 25.28 40.0594 24.7867 40.8594 23.8C41.6594 22.8133 42.0594 21.5067 42.0594 19.88C42.0594 18.2267 41.646 16.9733 40.8194 16.12C40.0194 15.24 38.8327 14.8 37.2594 14.8C36.1394 14.8 35.206 15.08 34.4594 15.64C33.7127 16.2 33.1794 16.9467 32.8594 17.88H27.4994V0.76H45.5794V5.68Z" fill="#F7F0DC"/>
</svg>
