<svg width="48" height="31" viewBox="0 0 48 31" fill="none" xmlns="http://www.w3.org/2000/svg">
<path d="M0.12 15.04C0.12 10.4267 0.946667 6.81333 2.6 4.2C4.28 1.58667 7.05333 0.279999 10.92 0.279999C14.7867 0.279999 17.5467 1.58667 19.2 4.2C20.88 6.81333 21.72 10.4267 21.72 15.04C21.72 19.68 20.88 23.32 19.2 25.96C17.5467 28.6 14.7867 29.92 10.92 29.92C7.05333 29.92 4.28 28.6 2.6 25.96C0.946667 23.32 0.12 19.68 0.12 15.04ZM16.2 15.04C16.2 13.0667 16.0667 11.4133 15.8 10.08C15.56 8.72 15.0533 7.61333 14.28 6.76C13.5333 5.90667 12.4133 5.48 10.92 5.48C9.42667 5.48 8.29333 5.90667 7.52 6.76C6.77333 7.61333 6.26667 8.72 6 10.08C5.76 11.4133 5.64 13.0667 5.64 15.04C5.64 17.0667 5.76 18.7733 6 20.16C6.24 21.52 6.74667 22.6267 7.52 23.48C8.29333 24.3067 9.42667 24.72 10.92 24.72C12.4133 24.72 13.5467 24.3067 14.32 23.48C15.0933 22.6267 15.6 21.52 15.84 20.16C16.08 18.7733 16.2 17.0667 16.2 15.04ZM41.0994 8.12C40.8327 7 40.366 6.16 39.6994 5.6C39.0594 5.04 38.126 4.76 36.8994 4.76C35.0594 4.76 33.6994 5.50666 32.8194 7C31.966 8.46666 31.526 10.8667 31.4994 14.2C32.1394 13.1333 33.0727 12.3067 34.2994 11.72C35.526 11.1067 36.8594 10.8 38.2994 10.8C40.0327 10.8 41.566 11.1733 42.8994 11.92C44.2327 12.6667 45.2727 13.76 46.0194 15.2C46.766 16.6133 47.1394 18.32 47.1394 20.32C47.1394 22.2133 46.7527 23.9067 45.9794 25.4C45.2327 26.8667 44.126 28.0133 42.6594 28.84C41.1927 29.6667 39.446 30.08 37.4194 30.08C34.646 30.08 32.4594 29.4667 30.8594 28.24C29.286 27.0133 28.1794 25.3067 27.5394 23.12C26.926 20.9067 26.6194 18.1867 26.6194 14.96C26.6194 10.08 27.4594 6.4 29.1394 3.92C30.8194 1.41333 33.4727 0.159998 37.0994 0.159998C39.8994 0.159998 42.0727 0.919998 43.6194 2.44C45.166 3.96 46.0594 5.85333 46.2994 8.12H41.0994ZM37.0194 15.4C35.606 15.4 34.4194 15.8133 33.4594 16.64C32.4994 17.4667 32.0194 18.6667 32.0194 20.24C32.0194 21.8133 32.4594 23.0533 33.3394 23.96C34.246 24.8667 35.5127 25.32 37.1394 25.32C38.5794 25.32 39.7127 24.88 40.5394 24C41.3927 23.12 41.8194 21.9333 41.8194 20.44C41.8194 18.8933 41.406 17.6667 40.5794 16.76C39.7794 15.8533 38.5927 15.4 37.0194 15.4Z" fill="#EEECE2"/>
</svg>
