<svg width="24" height="24" viewBox="0 0 24 24" fill="none" xmlns="http://www.w3.org/2000/svg">
<rect width="24" height="24" rx="12" fill="#EB6842" fill-opacity="0.25"/>
<path d="M18 12.5926C18 13.2504 17.466 13.7778 16.8 13.7778H7.2C6.54 13.7778 6 13.2504 6 12.5926C6 11.9348 6.54 11.4074 7.2 11.4074H12.6L14.1 12.5926L15.6 11.4074H16.8C17.466 11.4074 18 11.9407 18 12.5926ZM12 6.66666C6.6 6.66666 6.6 10.2222 6.6 10.2222H17.4C17.4 10.2222 17.4 6.66666 12 6.66666ZM6.6 15.5556C6.6 16.5393 7.404 17.3333 8.4 17.3333H15.6C16.596 17.3333 17.4 16.5393 17.4 15.5556V14.963H6.6V15.5556Z" fill="#EB6842"/>
</svg>
