<svg width="20" height="22" viewBox="0 0 20 22" fill="none" xmlns="http://www.w3.org/2000/svg">
<path d="M9.99999 12.5238C8.62479 12.5238 7.30592 11.9887 6.33351 11.0361C5.3611 10.0835 4.81481 8.79158 4.81481 7.44445H6.88888C6.88888 8.25273 7.21666 9.0279 7.8001 9.59944C8.38355 10.171 9.17487 10.4921 9.99999 10.4921C10.8251 10.4921 11.6164 10.171 12.1999 9.59944C12.7833 9.0279 13.1111 8.25273 13.1111 7.44445H15.1852C15.1852 8.79158 14.6389 10.0835 13.6665 11.0361C12.6941 11.9887 11.3752 12.5238 9.99999 12.5238ZM9.99999 2.36508C10.8251 2.36508 11.6164 2.68617 12.1999 3.25771C12.7833 3.82925 13.1111 4.60442 13.1111 5.4127H6.88888C6.88888 4.60442 7.21666 3.82925 7.8001 3.25771C8.38355 2.68617 9.17487 2.36508 9.99999 2.36508ZM17.2593 5.4127H15.1852C15.1852 4.74567 15.0511 4.08517 14.7905 3.46891C14.5299 2.85265 14.148 2.29271 13.6665 1.82105C13.185 1.34938 12.6134 0.975241 11.9843 0.71998C11.3552 0.464718 10.6809 0.333336 9.99999 0.333336C8.62479 0.333336 7.30592 0.868482 6.33351 1.82105C5.3611 2.77361 4.81481 4.06557 4.81481 5.4127H2.74073C1.58962 5.4127 0.666656 6.31683 0.666656 7.44445V19.6349C0.666656 20.1738 0.885174 20.6906 1.27414 21.0716C1.6631 21.4526 2.19065 21.6667 2.74073 21.6667H17.2593C17.8093 21.6667 18.3369 21.4526 18.7258 21.0716C19.1148 20.6906 19.3333 20.1738 19.3333 19.6349V7.44445C19.3333 6.31683 18.4 5.4127 17.2593 5.4127Z" fill="#8D62F7"/>
</svg>
