<svg width="30" height="22" viewBox="0 0 30 22" fill="none" xmlns="http://www.w3.org/2000/svg">
<path d="M2.33331 0.333336H27.6666C28.7866 0.333336 29.6666 1.17374 29.6666 2.27273V17.1414C29.6666 18.2404 28.7866 19.0808 27.6666 19.0808H2.33331C1.19998 19.0808 0.333313 18.2404 0.333313 17.1414V2.27273C0.333313 1.17374 1.19998 0.333336 2.33331 0.333336ZM11.9466 5.50505V13.9091L19.56 9.64243L11.9466 5.50505ZM22 21.6667H7.86665C7.46665 21.6667 7.19998 21.4081 7.19998 21.0202C7.19998 20.6323 7.46665 20.3737 7.86665 20.3737H22.1333C22.5333 20.3737 22.8 20.6323 22.8 21.0202C22.8 21.4081 22.4 21.6667 22 21.6667Z" fill="#77ADD9"/>
</svg>
