<svg width="24" height="24" viewBox="0 0 24 24" fill="none" xmlns="http://www.w3.org/2000/svg">
<rect width="24" height="24" rx="12" fill="#E19500" fill-opacity="0.2"/>
<path d="M14.6666 11.3333C14.8555 11.3333 15.0139 11.2694 15.1416 11.1417C15.2694 11.0139 15.3333 10.8556 15.3333 10.6667C15.3333 10.4778 15.2694 10.3194 15.1416 10.1917C15.0139 10.0639 14.8555 9.99999 14.6666 9.99999C14.4778 9.99999 14.3194 10.0639 14.1916 10.1917C14.0639 10.3194 14 10.4778 14 10.6667C14 10.8556 14.0639 11.0139 14.1916 11.1417C14.3194 11.2694 14.4778 11.3333 14.6666 11.3333ZM9.83331 9.66666H12.1666C12.3111 9.66666 12.4305 9.61944 12.525 9.52499C12.6194 9.43055 12.6666 9.31111 12.6666 9.16666C12.6666 9.02222 12.6194 8.90277 12.525 8.80833C12.4305 8.71388 12.3111 8.66666 12.1666 8.66666H9.83331C9.68887 8.66666 9.56942 8.71388 9.47498 8.80833C9.38053 8.90277 9.33331 9.02222 9.33331 9.16666C9.33331 9.31111 9.38053 9.43055 9.47498 9.52499C9.56942 9.61944 9.68887 9.66666 9.83331 9.66666ZM7.83331 18C7.59998 18 7.38053 17.9222 7.17498 17.7667C6.96942 17.6111 6.83331 17.4222 6.76665 17.2C6.48887 16.2444 6.25831 15.4194 6.07498 14.725C5.89165 14.0306 5.74442 13.4222 5.63331 12.9C5.5222 12.3778 5.44442 11.9139 5.39998 11.5083C5.35554 11.1028 5.33331 10.7111 5.33331 10.3333C5.33331 9.31111 5.68887 8.44444 6.39998 7.73333C7.11109 7.02222 7.97776 6.66666 8.99998 6.66666H12.3333C12.6333 6.26666 13.0139 5.94444 13.475 5.69999C13.9361 5.45555 14.4444 5.33333 15 5.33333C15.2778 5.33333 15.5139 5.43055 15.7083 5.62499C15.9028 5.81944 16 6.05555 16 6.33333C16 6.39999 15.9916 6.46666 15.975 6.53333C15.9583 6.59999 15.9389 6.66111 15.9166 6.71666C15.8722 6.83888 15.8305 6.96111 15.7916 7.08333C15.7528 7.20555 15.7222 7.33888 15.7 7.48333L17.2166 8.99999H18.1666C18.3111 8.99999 18.4305 9.04722 18.525 9.14166C18.6194 9.23611 18.6666 9.35555 18.6666 9.49999V13.2833C18.6666 13.3944 18.6361 13.4944 18.575 13.5833C18.5139 13.6722 18.4278 13.7333 18.3166 13.7667L16.7833 14.2667L15.8833 17.2833C15.8166 17.5055 15.6944 17.6805 15.5166 17.8083C15.3389 17.9361 15.1389 18 14.9166 18H13C12.7222 18 12.4861 17.9028 12.2916 17.7083C12.0972 17.5139 12 17.2778 12 17V16.6667H10.6666V17C10.6666 17.2778 10.5694 17.5139 10.375 17.7083C10.1805 17.9028 9.94442 18 9.66665 18H7.83331ZM7.74998 17H9.66665V15.6667H13V17H14.9166L15.9666 13.5L17.6666 12.9167V9.99999H16.8L14.6666 7.86666C14.6778 7.67777 14.7083 7.44722 14.7583 7.17499C14.8083 6.90277 14.8778 6.59999 14.9666 6.26666C14.4889 6.38888 14.0666 6.57222 13.7 6.81666C13.3333 7.06111 13.0666 7.34444 12.9 7.66666H8.99998C8.26665 7.66666 7.63887 7.92777 7.11665 8.44999C6.59442 8.97222 6.33331 9.59999 6.33331 10.3333C6.33331 10.8 6.45554 11.6139 6.69998 12.775C6.94442 13.9361 7.29442 15.3444 7.74998 17Z" fill="#E19500"/>
</svg>
