<svg width="12" height="14" viewBox="0 0 12 14" fill="none" xmlns="http://www.w3.org/2000/svg">
<path d="M1.29391 13.6375C0.968706 13.6375 0.690456 13.5218 0.459156 13.2905C0.228156 13.0592 0.112656 12.7811 0.112656 12.4562V5.38765C0.112656 5.20015 0.153306 5.02195 0.234606 4.85305C0.315606 4.68445 0.431106 4.5439 0.581106 4.4314L5.28766 0.9061C5.40016 0.8311 5.51581 0.77485 5.63461 0.73735C5.75311 0.69985 5.87491 0.6811 6.00001 0.6811C6.12511 0.6811 6.24691 0.69985 6.36541 0.73735C6.48421 0.77485 6.59986 0.8311 6.71236 0.9061L11.4189 4.4314C11.5689 4.5439 11.6844 4.68445 11.7654 4.85305C11.8467 5.02195 11.8874 5.20015 11.8874 5.38765V12.4562C11.8874 12.7811 11.7717 13.0592 11.5404 13.2905C11.3094 13.5218 11.0313 13.6375 10.7061 13.6375H7.53766V8.4436H4.48126V13.6375H1.29391Z" fill="#303F9F"/>
</svg>
