<svg width="20" height="16" viewBox="0 0 20 16" fill="none" xmlns="http://www.w3.org/2000/svg">
<path d="M19.8247 1.72519V14.2748C19.8247 14.6916 19.6705 15.0584 19.3621 15.3752C19.0537 15.6916 18.6829 15.8498 18.2497 15.8498L1.74965 15.8498C1.31645 15.8498 0.945652 15.6916 0.637252 15.3752C0.328852 15.0584 0.174652 14.6916 0.174652 14.2748L0.174652 1.72519C0.174652 1.30839 0.328852 0.941591 0.637252 0.624791C0.945652 0.308391 1.31645 0.15019 1.74965 0.15019L18.2497 0.15019C18.6829 0.15019 19.0537 0.308391 19.3621 0.624791C19.6705 0.941591 19.8247 1.30839 19.8247 1.72519ZM1.74965 4.22479L18.2497 4.22479V1.72519L1.74965 1.72519L1.74965 4.22479ZM1.74965 7.57519L1.74965 14.2748L18.2497 14.2748V7.57519L1.74965 7.57519ZM1.74965 14.2748L1.74965 1.72519L1.74965 14.2748Z" fill="#B7B7B7"/>
</svg>
