<svg width="20" height="20" viewBox="0 0 20 20" fill="none" xmlns="http://www.w3.org/2000/svg">
<path d="M10.7998 9.2002H18.2248C18.0416 7.2502 17.25 5.5626 15.85 4.1374C14.45 2.7126 12.7666 1.9252 10.7998 1.7752V9.2002ZM9.22479 18.2248V1.7752C7.10839 1.9752 5.33339 2.8626 3.89979 4.4374C2.46659 6.0126 1.74999 7.8668 1.74999 10C1.74999 12.1332 2.46659 13.9874 3.89979 15.5626C5.33339 17.1374 7.10839 18.0248 9.22479 18.2248ZM10.7998 18.2248C12.7498 18.0584 14.4248 17.2668 15.8248 15.85C17.2248 14.4332 18.0248 12.7416 18.2248 10.7752H10.7998V18.2248ZM9.99999 19.825C8.63319 19.825 7.35399 19.5666 6.16239 19.0498C4.97079 18.5334 3.93339 17.8334 3.05019 16.9498C2.16659 16.0666 1.46659 15.0292 0.950188 13.8376C0.433388 12.646 0.174988 11.3668 0.174988 10C0.174988 8.6332 0.433388 7.354 0.950188 6.1624C1.46659 4.9708 2.16659 3.9334 3.05019 3.0502C3.93339 2.1666 4.97079 1.4666 6.16239 0.9502C7.35399 0.4334 8.63319 0.175 9.99999 0.175C11.3668 0.175 12.646 0.4334 13.8376 0.9502C15.0292 1.4666 16.0708 2.1666 16.9624 3.0502C17.854 3.9334 18.554 4.9708 19.0624 6.1624C19.5708 7.354 19.825 8.6332 19.825 10C19.825 11.3668 19.5708 12.646 19.0624 13.8376C18.554 15.0292 17.854 16.0666 16.9624 16.9498C16.0708 17.8334 15.0292 18.5334 13.8376 19.0498C12.646 19.5666 11.3668 19.825 9.99999 19.825Z" fill="#B7B7B7"/>
</svg>
